<svg width="20" height="20" viewBox="0 0 20 20" fill="none" xmlns="http://www.w3.org/2000/svg">
<g clip-path="url(#clip0_2_178)">
<path d="M19.3718 0.0447921L0.24819 8.3798C-0.0904196 8.54129 -0.0800011 9.02576 0.263818 9.17683L5.43673 12.0993C5.74408 12.2712 6.12437 12.2347 6.39005 12.0055L16.59 3.21209C16.6577 3.15479 16.8192 3.04539 16.8817 3.10791C16.9495 3.17563 16.8453 3.33191 16.788 3.39963L7.96328 13.3391C7.71844 13.6152 7.68197 14.0216 7.87993 14.3341L11.2608 19.7571C11.4275 20.0853 11.9016 20.0801 12.0526 19.7467L19.9605 0.623033C20.1324 0.247958 19.7417 -0.132327 19.3718 0.0447921Z" fill="#2446A3"/>
</g>
<defs>
<clipPath id="clip0_2_178">
<rect width="20" height="20" fill="white"/>
</clipPath>
</defs>
</svg>
